<?xml version="1.0" encoding="utf-8"?>
<!-- Generator: Adobe Illustrator 16.0.0, SVG Export Plug-In . SVG Version: 6.00 Build 0)  -->
<!DOCTYPE svg PUBLIC "-//W3C//DTD SVG 1.1//EN" "http://www.w3.org/Graphics/SVG/1.1/DTD/svg11.dtd">
<svg version="1.1" id="Layer_1" xmlns="http://www.w3.org/2000/svg" xmlns:xlink="http://www.w3.org/1999/xlink" x="0px" y="0px"
	 width="24px" height="24px" viewBox="0 0 24 24" enable-background="new 0 0 24 24" xml:space="preserve">
<title></title>
<g id="Layer_2">
	<path d="M12,23.25C5.787,23.25,0.75,18.213,0.75,12S5.787,0.75,12,0.75S23.25,5.787,23.25,12S18.213,23.25,12,23.25z M12,21.75
		c5.385,0,9.75-4.365,9.75-9.75S17.385,2.25,12,2.25S2.25,6.615,2.25,12S6.615,21.75,12,21.75z"/>
	<path d="M14.902,17.25L14.902,17.25c-0.293,0.291-0.766,0.291-1.057,0l-4.771-4.77c-0.263-0.266-0.263-0.694,0-0.96l4.771-4.77
		c0.291-0.291,0.764-0.291,1.057,0l0,0c0.291,0.293,0.291,0.766,0,1.058L10.717,12l4.186,4.191
		C15.193,16.484,15.193,16.957,14.902,17.25z"/>
</g>
</svg>
