<?xml version="1.0" encoding="utf-8"?>
<!-- Generator: Adobe Illustrator 16.0.0, SVG Export Plug-In . SVG Version: 6.00 Build 0)  -->
<!DOCTYPE svg PUBLIC "-//W3C//DTD SVG 1.1//EN" "http://www.w3.org/Graphics/SVG/1.1/DTD/svg11.dtd">
<svg version="1.1" id="Livello_1" xmlns="http://www.w3.org/2000/svg" xmlns:xlink="http://www.w3.org/1999/xlink" x="0px" y="0px"
	 width="24px" height="24px" viewBox="0 0 24 24" enable-background="new 0 0 24 24" xml:space="preserve">
<title></title>
<path d="M12,0C5.373,0,0,5.373,0,12c0,6.627,5.373,12,12,12c6.627,0,12-5.373,12-12C23.992,5.375,18.625,0.007,12,0z M12,22.875
	C5.994,22.875,1.125,18.006,1.125,12S5.994,1.125,12,1.125S22.875,5.994,22.875,12C22.867,18.003,18.003,22.867,12,22.875z"/>
<path d="M10.897,6.728c-0.227-0.212-0.583-0.199-0.795,0.028c-0.201,0.216-0.201,0.551,0,0.767L14.58,12l-4.478,4.478
	c-0.228,0.212-0.24,0.567-0.028,0.795c0.212,0.228,0.568,0.239,0.795,0.028c0.009-0.01,0.019-0.019,0.028-0.028l4.875-4.875
	c0.22-0.22,0.22-0.575,0-0.795L10.897,6.728z"/>
</svg>
