<?xml version="1.0" encoding="utf-8"?>
<!-- Generator: Adobe Illustrator 16.0.0, SVG Export Plug-In . SVG Version: 6.00 Build 0)  -->
<!DOCTYPE svg PUBLIC "-//W3C//DTD SVG 1.1//EN" "http://www.w3.org/Graphics/SVG/1.1/DTD/svg11.dtd">
<svg version="1.1" id="Layer_1" xmlns="http://www.w3.org/2000/svg" xmlns:xlink="http://www.w3.org/1999/xlink" x="0px" y="0px"
	 width="24px" height="24px" viewBox="0 0 24 24" enable-background="new 0 0 24 24" xml:space="preserve">
<g>
	<path d="M8.629,23.949c0-3.975,0-7.915,0-11.896c-0.877,0-1.728,0-2.598,0c0-1.35,0-2.66,0-4.009
		c0.114-0.006,0.229-0.02,0.351-0.02c0.627,0,1.261-0.014,1.889,0.007C8.548,8.038,8.643,7.963,8.635,7.68
		C8.623,6.654,8.623,5.635,8.629,4.609c0.006-1.154,0.331-2.2,1.154-3.037c0.796-0.81,1.815-1.248,2.922-1.316
		c1.782-0.101,3.57-0.088,5.358-0.122c0.02,0,0.04,0.021,0.081,0.042c0,1.355,0,2.719,0,4.116c-0.129,0.007-0.249,0.013-0.364,0.013
		c-0.812,0-1.619,0-2.43,0c-0.817,0.007-1.296,0.493-1.296,1.296c0,0.762,0,1.531,0.007,2.294c0,0.02,0.014,0.04,0.033,0.114
		c1.337,0,2.687,0,4.104,0c-0.177,1.37-0.338,2.679-0.515,4.036c-1.221,0-2.414,0-3.644,0c0,3.995,0,7.949,0,11.918
		C12.227,23.949,10.458,23.949,8.629,23.949z"/>
</g>
</svg>
