<?xml version="1.0" encoding="utf-8"?>
<!-- Generator: Adobe Illustrator 16.0.0, SVG Export Plug-In . SVG Version: 6.00 Build 0)  -->
<!DOCTYPE svg PUBLIC "-//W3C//DTD SVG 1.1//EN" "http://www.w3.org/Graphics/SVG/1.1/DTD/svg11.dtd">
<svg version="1.1" id="Layer_1" xmlns="http://www.w3.org/2000/svg" xmlns:xlink="http://www.w3.org/1999/xlink" x="0px" y="0px"
	 width="24px" height="24px" viewBox="0 0 24 24" enable-background="new 0 0 24 24" xml:space="preserve">
<path d="M12.012,0.21c-5.027,0-9.158,4.083-9.182,9.111c0.024,1.888,0.591,3.729,1.7,5.287c0.023,0.047,0.047,0.094,0.093,0.141
	l6.468,8.593l0.023,0.022c0.236,0.285,0.567,0.426,0.897,0.426s0.662-0.165,0.897-0.426l0.022-0.022l6.444-8.593
	c0.071-0.069,0.118-0.118,0.165-0.212c1.062-1.534,1.63-3.351,1.63-5.216C21.171,4.316,17.063,0.21,12.012,0.21z M12.012,1.626
	c4.271,0,7.743,3.469,7.743,7.718c0,1.581-0.473,3.092-1.395,4.413c-0.021,0.024-0.047,0.047-0.047,0.071l-6.302,8.404l-6.278-8.38
	L5.71,13.829c0-0.024-0.024-0.024-0.048-0.047c-0.92-1.321-1.417-2.856-1.417-4.438C4.27,5.073,7.763,1.626,12.012,1.626z
	 M12.012,4.719c-2.455,0-4.461,1.935-4.461,4.32c0,2.384,2.006,4.343,4.461,4.343c2.454,0,4.461-1.936,4.461-4.32
	S14.466,4.719,12.012,4.719z M12.012,6.135c1.675,0,3.044,1.298,3.044,2.904c0,1.604-1.369,2.927-3.044,2.927
	c-1.676,0-3.045-1.3-3.045-2.904C8.966,7.456,10.336,6.135,12.012,6.135z"/>
</svg>
