<?xml version="1.0" ?><!DOCTYPE svg  PUBLIC '-//W3C//DTD SVG 1.1//EN'  'http://www.w3.org/Graphics/SVG/1.1/DTD/svg11.dtd'><svg enable-background="new 0 0 512 512" id="Layer_1" version="1.1" viewBox="0 0 512 512" xml:space="preserve" xmlns="http://www.w3.org/2000/svg" xmlns:xlink="http://www.w3.org/1999/xlink"><g><path d="M258.6,507.2C120.3,507.7,6.8,392.6,9.9,252.2c3-134,114-245.1,252.3-243.5c136.7,1.6,249.5,115.4,246,255.8   C504.8,398.1,394.7,508,258.6,507.2z M477.8,258.2C477,135.6,380.1,40.5,263.6,38C143,35.5,40.4,132.4,40.4,258   c0,122.8,98,217.6,214.3,220C374.9,480.4,476.7,383.7,477.8,258.2z"/><path d="M114.8,174.7c0-18.6,0-36.7,0-54.9c141.9-5.2,285.6,120.4,284.6,289.9c-18,0-36,0-54.4,0c-1.2-63.6-22.6-119.1-66.8-164.8   C233.8,199.1,179.1,176,114.8,174.7z"/><path d="M248.2,410.1c-0.7-75.2-60.7-136.5-133.4-136.6c0-18.2,0-36.5,0-54.7c94-4.3,189.5,81.3,187.5,191.3c-8.9,0-17.8,0-26.8,0   S257.6,410.1,248.2,410.1z"/><path d="M190.3,371.1c0.1,21.6-16.9,38.9-37.9,38.8c-20.8-0.1-37.8-17.3-38-38.5c-0.1-21.4,16.9-38.8,38.1-38.7   C173.6,332.8,190.2,349.6,190.3,371.1z"/></g></svg>